
<svg width="131" height="58" viewBox="0 0 131 58" fill="none" xmlns="http://www.w3.org/2000/svg">
<g opacity="0.7" filter="url(#filter0_f_1_53331)">
<path d="M17.7297 39.6847L17.7252 39.7127L17.6994 39.7194C17.6412 39.7799 17.5393 39.8359 17.5315 39.9019C17.4632 40.539 17.3859 41.1762 17.3613 41.8144C17.3243 42.7953 17.8562 43.3921 18.8326 43.5208C18.9782 43.5298 19.1248 43.5455 19.2704 43.5455C21.8189 43.5466 24.3684 43.5455 26.9169 43.5455H27.3155C27.1901 44.074 27.0793 44.5487 26.9673 45.0224C26.8755 45.3415 26.7848 45.6606 26.6885 45.9976C26.6067 45.9976 26.534 45.9976 26.4623 45.9976C22.6721 45.9976 18.8807 45.9976 15.0905 45.9954C14.9102 45.9954 14.7266 45.9663 14.5497 45.9293C14.2048 45.8565 13.8633 45.7692 13.5196 45.6875L13.5229 45.6897C13.4221 45.6158 13.3214 45.5419 13.2206 45.468L13.2273 45.4725C13.1769 45.4456 13.1277 45.4187 13.0773 45.3919L13.0795 45.393C12.9317 45.2452 12.7828 45.0963 12.635 44.9485L12.6372 44.9507C12.5622 44.8511 12.4883 44.7525 12.4133 44.6529L12.4155 44.6551C12.3887 44.551 12.3584 44.448 12.3349 44.3438C12.2151 43.7952 12.0035 43.242 12.0001 42.6889C11.9956 41.811 12.1199 40.9309 12.2106 40.0531C12.2532 39.6399 12.3472 39.2312 12.4178 38.8203C12.4357 38.7878 12.4581 38.7576 12.4704 38.7229C13.0672 36.9705 14.2283 35.7512 15.9437 35.0614C16.3076 34.9147 16.6917 34.8173 17.0657 34.6975C17.396 34.6852 17.7274 34.6617 18.0578 34.6617C43.8548 34.6606 69.6529 34.6617 95.4499 34.6594C101.192 34.6594 106.935 34.6516 112.677 34.6471C112.686 34.655 112.697 34.6695 112.702 34.6684C112.724 34.6628 112.743 34.6516 112.763 34.6427C112.884 34.6147 113.006 34.5867 113.127 34.5598C113.236 34.5598 113.351 34.5811 113.455 34.5598C115.105 34.206 116.423 33.3438 117.393 31.9598C117.466 31.8557 117.498 31.7224 117.55 31.6038L117.545 31.6082C117.593 31.6284 117.685 31.6508 117.684 31.6687C117.671 31.9061 117.667 32.1479 117.619 32.3797C117.468 33.1086 117.302 33.8365 116.9 34.4814C116.877 34.5195 116.893 34.5844 116.892 34.6371L116.895 34.6348C116.722 34.8812 116.549 35.1275 116.376 35.3738L116.378 35.3716C116.28 35.4724 116.181 35.572 116.083 35.6728L116.087 35.6683C115.963 35.7926 115.838 35.9169 115.713 36.0423L115.718 36.0378C115.617 36.1363 115.517 36.2338 115.417 36.3323C115.318 36.4062 115.218 36.4801 115.12 36.5551L115.122 36.554C114.974 36.6525 114.825 36.7511 114.678 36.8496C114.678 36.8496 114.679 36.8496 114.679 36.8485C114.11 37.0668 113.54 37.284 112.971 37.5024C112.902 37.5281 112.833 37.5539 112.764 37.5797C112.517 37.5808 112.27 37.583 112.023 37.5841C111.998 37.583 111.973 37.5808 111.949 37.5808C98.0454 37.5808 84.1419 37.5808 70.2385 37.5841C70.1209 37.5841 70.0045 37.6244 69.8869 37.6457L69.8925 37.6659C69.8421 37.667 69.7917 37.6692 69.7413 37.6703C69.607 37.6659 69.4715 37.6558 69.3371 37.6558C53.1428 37.6558 36.9484 37.6558 20.754 37.6558C20.6073 37.6558 20.4606 37.6681 20.3128 37.6748C19.6321 37.6815 19.0409 37.9178 18.5336 38.3668C18.5124 38.4026 18.4922 38.4385 18.4709 38.4743L18.4743 38.4698C18.3993 38.5448 18.3242 38.6199 18.2492 38.6949L18.2526 38.6904C18.0477 38.9972 17.8428 39.304 17.6412 39.613C17.639 39.6175 17.6961 39.6601 17.7252 39.6847H17.7297Z" fill="#C94480"/>
<path d="M75.5056 11.9999C76.454 12.0536 77.4069 12.0648 78.3486 12.1712C79.4201 12.2921 80.4883 12.4679 81.5476 12.6762C83.3066 13.0233 85.0668 13.3783 86.8091 13.8004C88.2905 14.1587 89.7472 14.6189 91.2163 15.031C93.4736 15.6658 95.6201 16.5963 97.7711 17.5089C99.4394 18.2165 101.084 18.9813 102.755 19.6845C104.04 20.2264 105.331 20.7672 106.654 21.2084C108.125 21.7 109.623 22.1221 111.131 22.4893C112.06 22.7155 113.024 22.8264 113.979 22.9059C114.977 22.9876 115.983 22.9865 116.986 22.9876C117.414 22.9876 117.841 22.9036 118.3 22.9227C118.012 23.0996 117.727 23.2787 117.437 23.4512C116.991 23.7165 116.55 23.9886 116.094 24.2339C115.932 24.3212 115.731 24.385 115.549 24.3839C114.373 24.3738 113.198 24.3436 112.023 24.3156C111.217 24.2966 110.41 24.2686 109.604 24.2462C108.613 24.2193 107.622 24.1947 106.632 24.1678C105.876 24.1465 105.119 24.1208 104.361 24.0995C103.345 24.0715 102.329 24.048 101.315 24.02C100.583 23.9998 99.8493 23.9741 99.117 23.9528C98.1148 23.9248 97.1116 23.9002 96.1083 23.8733C95.2652 23.8498 94.422 23.8252 93.5789 23.8005C92.7234 23.7759 91.868 23.7524 91.0125 23.7277C90.1694 23.7042 89.3262 23.6785 88.4842 23.6561C87.4563 23.6281 86.4284 23.6046 85.4016 23.5766C84.6436 23.5553 83.8867 23.5296 83.1286 23.5083C82.1993 23.4814 81.2699 23.4579 80.3405 23.4321C79.4604 23.4075 78.5804 23.384 77.7003 23.3571C77.6096 23.3549 77.5189 23.3392 77.3285 23.3191C77.4517 23.2552 77.4853 23.2228 77.52 23.2216C78.1784 23.1948 78.8379 23.1847 79.4952 23.1444C80.5622 23.0794 81.6282 22.9921 82.6953 22.9216C83.1936 22.888 83.6929 22.8656 84.1923 22.8465C84.9123 22.8185 85.6334 22.8118 86.3523 22.7704C87.407 22.7088 88.4596 22.6204 89.5143 22.5543C89.8446 22.5341 90.1805 22.5744 90.5097 22.5465C91.494 22.4625 92.4715 22.3516 93.3325 21.7906C94.1376 21.2655 94.5351 19.7293 94.0346 19.0832C93.814 18.7988 93.5296 18.4953 93.2071 18.3666C91.3417 17.6208 89.4774 16.8583 87.5694 16.2324C85.9324 15.6938 84.2472 15.2874 82.5643 14.9044C81.5353 14.6704 80.4693 14.6066 79.4235 14.4442C77.4315 14.1363 75.4239 14.2001 73.4241 14.2416C72.3783 14.2628 71.328 14.4207 70.2967 14.6043C68.9262 14.8496 67.559 15.1351 66.212 15.4844C64.0152 16.0533 61.9381 16.9501 59.9293 17.9915C57.5298 19.2355 55.2848 20.7236 53.1786 22.4188C52.8864 22.6539 52.6053 22.9048 52.3019 23.1265C52.1843 23.2127 52.0231 23.2687 51.8775 23.2799C51.4184 23.3168 50.956 23.328 50.4947 23.3482C50.4163 23.3269 50.3368 23.2888 50.2584 23.2877C48.5452 23.2855 46.8321 23.2877 45.1189 23.2922C45.0394 23.2922 44.9599 23.3291 44.8793 23.3493C44.4796 23.328 44.0798 23.2855 43.6812 23.2899C42.8504 23.3 42.0196 23.3314 41.1888 23.3594C39.8462 23.4053 38.5037 23.4433 37.1623 23.5105C36.1568 23.5609 35.1524 23.6359 34.1503 23.7311C33.1033 23.8308 32.0598 23.9573 31.0162 24.0905C29.7509 24.2529 28.4778 24.3873 27.226 24.6246C25.6908 24.9158 24.1512 25.2293 22.6531 25.6671C20.9993 26.1508 19.3656 26.7274 17.7689 27.3758C16.5327 27.8774 15.3671 28.5503 14.1701 29.1471C14.0436 29.2098 13.9171 29.2714 13.7368 29.2849C13.8421 29.1359 13.9339 28.9736 14.0559 28.8415C15.4175 27.3769 17.0142 26.2348 18.8091 25.3569C21.034 24.2686 23.3674 23.5038 25.7871 22.9921C26.8296 22.7715 27.8687 22.5341 28.9167 22.346C29.6871 22.2083 30.4686 22.1366 31.2457 22.0381C32.2389 21.9127 33.2321 21.7806 34.2264 21.6686C34.6485 21.6216 35.0774 21.6227 35.5017 21.5925C36.4938 21.5219 37.4859 21.4447 38.4779 21.3719C38.5753 21.3652 38.675 21.3708 38.7724 21.3696C40.7095 21.3394 42.6466 21.3092 44.5837 21.2778C44.8804 21.2778 45.176 21.2778 45.4728 21.2778C46.7201 21.4379 47.8813 21.0516 49.0424 20.6978C51.6648 19.8983 54.1248 18.7271 56.5344 17.4361C58.1165 16.5885 59.7065 15.7498 61.3234 14.9716C63.5135 13.9168 65.7989 13.1062 68.1838 12.6146C69.2173 12.4019 70.2732 12.2821 71.3246 12.169C72.1946 12.0749 73.0714 12.0525 73.9459 11.9988C74.4654 11.9988 74.985 11.9988 75.5045 11.9988L75.5056 11.9999Z" fill="white"/>
<path d="M101.035 43.4045C101.774 43.3855 102.537 42.726 102.723 41.9131C102.959 40.8896 103.17 39.8606 103.401 38.8361C103.436 38.6816 103.474 38.5282 103.72 38.5304C105.489 38.5427 107.258 38.5371 109.087 38.5371C108.754 39.8405 108.531 41.1528 108.078 42.3811C107.554 43.7964 106.488 44.8277 105.102 45.448C104.499 45.7178 103.82 45.8175 103.175 45.9955C101.053 45.991 98.931 45.9843 96.8092 45.9832C95.9022 45.9832 94.9953 45.9933 94.0883 45.9989C92.6002 45.8432 91.4861 45.1826 90.9677 43.7068C90.6418 42.7797 90.7863 41.8616 91.0046 40.9434C91.1726 40.238 91.3517 39.5348 91.5096 38.8271C91.5522 38.6346 91.6037 38.5327 91.8298 38.5338C93.6706 38.5416 95.5114 38.5383 97.3937 38.5383C97.163 39.5348 96.9301 40.5089 96.714 41.4876C96.6088 41.9657 96.4901 42.4427 96.8013 42.913C97.0074 43.2242 97.2593 43.4 97.6311 43.4056C97.6579 43.4224 97.6837 43.4392 97.7106 43.4549C98.7933 43.4549 99.8761 43.4549 100.959 43.4549L101.038 43.4045H101.035Z" fill="white"/>
<path d="M71.1408 45.9955C69.468 45.8163 68.524 44.934 68.2128 43.3306C68.0952 42.7259 68.2531 42.1112 68.4098 41.5077C68.664 40.529 68.8667 39.5381 69.0906 38.5516H74.7743C74.5391 39.5818 74.3197 40.594 74.0733 41.5995C73.893 42.3351 74.1797 42.8849 74.9019 43.1156C75.0687 43.1368 75.2356 43.176 75.4024 43.1772C77.2511 43.1839 79.0997 43.185 80.9495 43.1872C80.7289 44.1155 80.5083 45.0426 80.2877 45.9708C78.4503 45.9742 76.6128 45.9753 74.7765 45.9798C73.5639 45.9832 72.3523 45.9899 71.1408 45.9943V45.9955Z" fill="white"/>
<path d="M65.9789 38.6155C65.5959 39.4038 65.1189 40.1204 64.3799 40.6209C64.1034 40.8079 63.7955 40.949 63.4607 41.1337C63.5928 41.5726 63.7294 42.0474 63.8794 42.5188C64.231 43.6239 64.5904 44.7257 64.9432 45.8309C64.9577 45.8757 64.9465 45.9283 64.9465 45.9765C64.7259 45.9776 64.5065 45.9809 64.2859 45.9809C62.6354 45.9865 60.985 45.9921 59.3345 45.9977C58.9493 44.8276 58.5552 43.6609 58.1823 42.4874C57.8151 41.3319 57.468 40.1696 57.1141 39.0107C57.0828 38.9077 57.066 38.8014 57.0425 38.6961C57.1421 38.6692 57.2418 38.6211 57.3414 38.62C60.2202 38.6155 63.099 38.6155 65.9778 38.6155H65.9789Z" fill="white"/>
<path d="M82.45 45.963C82.6257 45.065 82.7959 44.1659 82.9773 43.2701C83.236 41.9858 83.5025 40.7037 83.7656 39.4205C83.8227 39.1406 83.8832 38.8607 83.9481 38.5573H89.9386C89.5769 40.3589 89.2197 42.1571 88.8536 43.9531C88.7158 44.6283 88.5569 45.3001 88.4068 45.9731C86.4216 45.9697 84.4363 45.9664 82.45 45.963Z" fill="white"/>
<path d="M47.6 38.6177C47.4534 39.2895 47.3134 39.9613 47.1589 40.6309C46.8218 42.1011 46.4781 43.5702 46.1355 45.0381C46.0627 45.3505 45.9854 45.6618 45.9093 45.9742C44.0203 45.972 42.1314 45.9697 40.2424 45.9675C40.4406 45.0728 40.631 44.1748 40.8381 43.2824C41.1718 41.8436 41.5167 40.4081 41.8571 38.9704C41.885 38.854 41.9209 38.7386 41.9534 38.6233C43.8356 38.6211 45.7167 38.6188 47.5989 38.6166L47.6 38.6177Z" fill="white"/>
<path d="M35.9394 38.6199C35.6281 39.9244 35.3135 41.2277 35.0067 42.5333C34.767 43.5522 34.5397 44.5734 34.3046 45.5923C34.2733 45.7289 34.2285 45.8622 34.1904 45.9965C34.0437 45.9921 33.8981 45.982 33.7515 45.982C32.1021 45.9786 30.4528 45.9764 28.8035 45.973C28.9255 45.3796 29.0341 44.7828 29.1719 44.1927C29.5828 42.4359 30.0049 40.6824 30.4226 38.9278C30.4472 38.8237 30.4808 38.7218 30.5099 38.6188C32.3194 38.6188 34.1288 38.6188 35.9394 38.6188V38.6199Z" fill="white"/>
<path d="M54.9779 38.6177C54.7763 39.5191 54.5792 40.4216 54.371 41.3218C54.0407 42.7461 53.7025 44.1682 53.3688 45.5913C53.3386 45.7178 53.3129 45.8455 53.286 45.972C53.1012 45.9754 52.9176 45.9798 52.7328 45.981C51.1227 45.9854 49.5114 45.9888 47.9013 45.9933L47.8923 45.9888C47.8923 45.9351 47.8923 45.8813 47.8935 45.8287C48.104 44.8971 48.31 43.9655 48.525 43.035C48.8575 41.5973 49.1957 40.1607 49.5327 38.7241C49.5428 38.6816 49.5697 38.6424 49.5887 38.601C51.3847 38.6066 53.1818 38.6121 54.9779 38.6177Z" fill="white"/>
<path d="M112.025 37.5831C111.775 37.6066 111.525 37.6514 111.275 37.6514C98.8681 37.6547 86.4629 37.6547 74.0565 37.6536C72.6669 37.6536 71.2785 37.6469 69.8889 37.6447C70.0065 37.6234 70.1229 37.5831 70.2405 37.5831C84.1439 37.5797 98.0474 37.5797 111.951 37.5797C111.975 37.5797 112 37.582 112.025 37.5831Z" fill="#009CCC"/>
<path d="M112.678 34.6495C112.707 34.6484 112.735 34.6461 112.764 34.645C112.744 34.654 112.725 34.6652 112.703 34.6708C112.697 34.6719 112.686 34.6573 112.678 34.6495Z" fill="#457488"/>
<path d="M37.3569 26.1777C40.4798 26.1788 43.6026 26.1799 46.7255 26.181C46.7748 26.1788 46.8252 26.1766 46.8744 26.1743C48.4073 26.2829 49.7028 27.556 49.6905 29.1024C49.6827 30.0463 49.3848 30.9163 49.2023 31.8177C49.0724 32.4593 48.9201 33.0964 48.7779 33.7357C46.8901 33.7391 45.0012 33.7413 43.1133 33.7447C43.2757 33.0001 43.4481 32.2577 43.597 31.5109C43.6978 31.0081 43.7986 30.5009 43.8389 29.9903C43.8803 29.4685 43.466 29.0486 42.9263 29.0408C41.7484 29.0251 40.5705 29.0262 39.3925 29.0408C38.8047 29.0475 38.0187 29.7428 37.872 30.3464C37.5976 31.4773 37.3267 32.6104 37.0535 33.7413C35.2619 33.7413 33.4693 33.7436 31.6777 33.7447C31.7751 33.2531 31.8614 32.7593 31.9733 32.27C32.1626 31.4459 32.3048 30.6028 32.5791 29.8067C33.2173 27.9535 34.5823 26.8361 36.4219 26.2617C36.6235 26.199 36.8463 26.2023 37.0591 26.1754L37.3558 26.1777H37.3569Z" fill="white"/>
<path d="M66.0573 26.1776C67.0292 26.3131 67.8119 26.7677 68.3337 27.603C68.7256 28.2301 68.8913 28.9142 68.7256 29.6622C68.4423 30.9409 68.1747 32.2229 67.8981 33.5039C67.8802 33.5845 67.8455 33.6618 67.8198 33.7413C66.0338 33.7435 64.249 33.7491 62.4631 33.7424C62.3757 33.7424 62.2884 33.645 62.2011 33.5924C62.4418 32.5353 62.6713 31.475 62.9255 30.4213C63.1024 29.6846 62.6377 29.0407 61.8831 29.0351C60.8272 29.0273 59.7713 29.0307 58.7165 29.034C57.935 29.0363 57.1903 29.5435 56.9832 30.3071C56.6753 31.4425 56.4312 32.5936 56.1602 33.739C54.3474 33.739 52.5357 33.7379 50.7229 33.7368C50.9547 32.7055 51.1921 31.6765 51.4149 30.6442C51.5795 29.8827 51.8258 29.1628 52.2916 28.5245C53.1706 27.3197 54.297 26.5001 55.7896 26.2325C55.868 26.2179 55.9452 26.1967 56.0236 26.1787C56.0975 26.181 56.1714 26.1821 56.2453 26.1843C56.8701 26.1787 57.4938 26.1664 58.1186 26.1676C60.6424 26.1687 63.1651 26.1743 65.6889 26.1787C65.8121 26.1787 65.9353 26.1787 66.0596 26.1787L66.0573 26.1776Z" fill="white"/>
<path d="M107.965 26.1788C109.256 26.377 110.232 27.0052 110.762 28.2335C111.102 29.0229 111.05 29.838 110.876 30.6498C110.654 31.6833 110.409 32.7123 110.174 33.7436C108.424 33.7458 106.674 33.7492 104.924 33.7425C104.824 33.7425 104.724 33.6439 104.625 33.5913C104.844 32.6037 105.069 31.6173 105.281 30.6274C105.443 29.866 105.144 29.2513 104.355 29.099C104.273 29.0778 104.191 29.0386 104.11 29.0374C103.102 29.033 102.095 29.033 101.088 29.0374C100.994 29.0374 100.899 29.0789 100.804 29.1013C100.056 29.2457 99.492 29.688 99.2815 30.3845C98.9579 31.4594 98.7642 32.5746 98.5156 33.6719C98.4495 33.6966 98.3835 33.7436 98.3174 33.7436C96.5348 33.7481 94.7534 33.7492 92.9708 33.7413C92.8947 33.7413 92.8196 33.6428 92.7446 33.5913C93.0884 32.2006 93.2082 30.7439 93.8655 29.4439C94.7097 27.7766 96.1026 26.7655 97.8807 26.2617C98.108 26.1967 98.3544 26.2012 98.5918 26.1732C98.5985 26.1833 98.6074 26.2012 98.6119 26.2001C98.6309 26.1967 98.6489 26.1867 98.6679 26.1799C101.104 26.1755 103.542 26.1687 105.978 26.1665C106.566 26.1665 107.153 26.1777 107.741 26.1833C107.815 26.1811 107.889 26.1799 107.963 26.1777L107.965 26.1788Z" fill="white"/>
<path d="M98.6689 26.181C98.6499 26.1878 98.632 26.1978 98.6129 26.2012C98.6085 26.2012 98.5995 26.1833 98.5928 26.1743C98.6185 26.1766 98.6432 26.1788 98.6689 26.181Z" fill="#D2D4D6"/>
<path d="M86.5694 26.1821C88.511 26.1799 90.4526 26.1777 92.3942 26.1754C92.4154 26.1945 92.4356 26.2146 92.4569 26.2336C92.3023 27.0152 92.1512 27.7968 91.9933 28.5783C91.7358 29.8514 91.4749 31.1234 91.214 32.3954C91.1211 32.85 91.0214 33.3035 90.9251 33.7581C90.3485 33.7547 89.7718 33.7525 89.1951 33.7491C87.7843 33.7424 86.3735 33.7357 84.9626 33.729C85.1429 32.822 85.3221 31.9151 85.5035 31.0092C85.7599 29.7271 86.0129 28.4439 86.275 27.163C86.3388 26.8506 86.4328 26.5438 86.5123 26.2348C86.5314 26.2168 86.5493 26.2 86.5683 26.1821H86.5694Z" fill="white"/>
<path d="M77.6274 26.2347C77.4471 27.0432 77.268 27.8516 77.0843 28.66C76.7003 30.3519 76.3128 32.0427 75.9265 33.7334C74.0387 33.7379 72.1509 33.7413 70.2642 33.7458C70.4131 33.0235 70.5497 32.2991 70.7143 31.5814C71.0972 29.913 71.4947 28.248 71.8866 26.5818C71.9135 26.4665 71.9426 26.3501 71.9706 26.2347C71.9919 26.2157 72.0132 26.1955 72.0333 26.1765C73.8764 26.1765 75.7205 26.1765 77.5636 26.1765C77.5848 26.1955 77.605 26.2157 77.6263 26.2347H77.6274Z" fill="white"/>
<path d="M72.0344 26.1754C72.0131 26.1945 71.9918 26.2146 71.9717 26.2336C71.993 26.2146 72.0142 26.1945 72.0344 26.1754Z" fill="#D2D4D6"/>
<path d="M21.6968 22.729L23.2386 19.5065C23.3092 19.3598 23.4603 19.2702 23.6227 19.2792L44.0451 20.9375C44.0451 20.9375 30.7295 19.9846 22.1984 23.2765C21.8614 23.4064 21.54 23.0537 21.6956 22.7279L21.6968 22.729Z" fill="#C94480"/>
</g>
<path d="M17.7297 39.6847L17.7252 39.7127L17.6994 39.7194C17.6412 39.7799 17.5393 39.8359 17.5315 39.9019C17.4632 40.539 17.3859 41.1762 17.3613 41.8144C17.3243 42.7953 17.8562 43.3921 18.8326 43.5208C18.9782 43.5298 19.1248 43.5455 19.2704 43.5455C21.8189 43.5466 24.3684 43.5455 26.9169 43.5455H27.3155C27.1901 44.074 27.0793 44.5487 26.9673 45.0224C26.8755 45.3415 26.7848 45.6606 26.6885 45.9976C26.6067 45.9976 26.534 45.9976 26.4623 45.9976C22.6721 45.9976 18.8807 45.9976 15.0905 45.9954C14.9102 45.9954 14.7266 45.9663 14.5497 45.9293C14.2048 45.8565 13.8633 45.7692 13.5196 45.6875L13.5229 45.6897C13.4221 45.6158 13.3214 45.5419 13.2206 45.468L13.2273 45.4725C13.1769 45.4456 13.1277 45.4187 13.0773 45.3919L13.0795 45.393C12.9317 45.2452 12.7828 45.0963 12.635 44.9485L12.6372 44.9507C12.5622 44.8511 12.4883 44.7525 12.4133 44.6529L12.4155 44.6551C12.3887 44.551 12.3584 44.448 12.3349 44.3438C12.2151 43.7952 12.0035 43.242 12.0001 42.6889C11.9956 41.811 12.1199 40.9309 12.2106 40.0531C12.2532 39.6399 12.3472 39.2312 12.4178 38.8203C12.4357 38.7878 12.4581 38.7576 12.4704 38.7229C13.0672 36.9705 14.2283 35.7512 15.9437 35.0614C16.3076 34.9147 16.6917 34.8173 17.0657 34.6975C17.396 34.6852 17.7274 34.6617 18.0578 34.6617C43.8548 34.6606 69.6529 34.6617 95.4499 34.6594C101.192 34.6594 106.935 34.6516 112.677 34.6471C112.686 34.655 112.697 34.6695 112.702 34.6684C112.724 34.6628 112.743 34.6516 112.763 34.6427C112.884 34.6147 113.006 34.5867 113.127 34.5598C113.236 34.5598 113.351 34.5811 113.455 34.5598C115.105 34.206 116.423 33.3438 117.393 31.9598C117.466 31.8557 117.498 31.7224 117.55 31.6038L117.545 31.6082C117.593 31.6284 117.685 31.6508 117.684 31.6687C117.671 31.9061 117.667 32.1479 117.619 32.3797C117.468 33.1086 117.302 33.8365 116.9 34.4814C116.877 34.5195 116.893 34.5844 116.892 34.6371L116.895 34.6348C116.722 34.8812 116.549 35.1275 116.376 35.3738L116.378 35.3716C116.28 35.4724 116.181 35.572 116.083 35.6728L116.087 35.6683C115.963 35.7926 115.838 35.9169 115.713 36.0423L115.718 36.0378C115.617 36.1363 115.517 36.2338 115.417 36.3323C115.318 36.4062 115.218 36.4801 115.12 36.5551L115.122 36.554C114.974 36.6525 114.825 36.7511 114.678 36.8496C114.678 36.8496 114.679 36.8496 114.679 36.8485C114.11 37.0668 113.54 37.284 112.971 37.5024C112.902 37.5281 112.833 37.5539 112.764 37.5797C112.517 37.5808 112.27 37.583 112.023 37.5841C111.998 37.583 111.973 37.5808 111.949 37.5808C98.0454 37.5808 84.1419 37.5808 70.2385 37.5841C70.1209 37.5841 70.0045 37.6244 69.8869 37.6457L69.8925 37.6659C69.8421 37.667 69.7917 37.6692 69.7413 37.6703C69.607 37.6659 69.4715 37.6558 69.3371 37.6558C53.1428 37.6558 36.9484 37.6558 20.754 37.6558C20.6073 37.6558 20.4606 37.6681 20.3128 37.6748C19.6321 37.6815 19.0409 37.9178 18.5336 38.3668C18.5124 38.4026 18.4922 38.4385 18.4709 38.4743L18.4743 38.4698C18.3993 38.5448 18.3242 38.6199 18.2492 38.6949L18.2526 38.6904C18.0477 38.9972 17.8428 39.304 17.6412 39.613C17.639 39.6175 17.6961 39.6601 17.7252 39.6847H17.7297Z" fill="#C94480"/>
<path d="M75.5056 11.9999C76.454 12.0536 77.4069 12.0648 78.3486 12.1712C79.4201 12.2921 80.4883 12.4679 81.5476 12.6762C83.3066 13.0233 85.0668 13.3783 86.8091 13.8004C88.2905 14.1587 89.7472 14.6189 91.2163 15.031C93.4736 15.6658 95.6201 16.5963 97.7711 17.5089C99.4394 18.2165 101.084 18.9813 102.755 19.6845C104.04 20.2264 105.331 20.7672 106.654 21.2084C108.125 21.7 109.623 22.1221 111.131 22.4893C112.06 22.7155 113.024 22.8264 113.979 22.9059C114.977 22.9876 115.983 22.9865 116.986 22.9876C117.414 22.9876 117.841 22.9036 118.3 22.9227C118.012 23.0996 117.727 23.2787 117.437 23.4512C116.991 23.7165 116.55 23.9886 116.094 24.2339C115.932 24.3212 115.731 24.385 115.549 24.3839C114.373 24.3738 113.198 24.3436 112.023 24.3156C111.217 24.2966 110.41 24.2686 109.604 24.2462C108.613 24.2193 107.622 24.1947 106.632 24.1678C105.876 24.1465 105.119 24.1208 104.361 24.0995C103.345 24.0715 102.329 24.048 101.315 24.02C100.583 23.9998 99.8493 23.9741 99.117 23.9528C98.1148 23.9248 97.1116 23.9002 96.1083 23.8733C95.2652 23.8498 94.422 23.8252 93.5789 23.8005C92.7234 23.7759 91.868 23.7524 91.0125 23.7277C90.1694 23.7042 89.3262 23.6785 88.4842 23.6561C87.4563 23.6281 86.4284 23.6046 85.4016 23.5766C84.6436 23.5553 83.8867 23.5296 83.1286 23.5083C82.1993 23.4814 81.2699 23.4579 80.3405 23.4321C79.4604 23.4075 78.5804 23.384 77.7003 23.3571C77.6096 23.3549 77.5189 23.3392 77.3285 23.3191C77.4517 23.2552 77.4853 23.2228 77.52 23.2216C78.1784 23.1948 78.8379 23.1847 79.4952 23.1444C80.5622 23.0794 81.6282 22.9921 82.6953 22.9216C83.1936 22.888 83.6929 22.8656 84.1923 22.8465C84.9123 22.8185 85.6334 22.8118 86.3523 22.7704C87.407 22.7088 88.4596 22.6204 89.5143 22.5543C89.8446 22.5341 90.1805 22.5744 90.5097 22.5465C91.494 22.4625 92.4715 22.3516 93.3325 21.7906C94.1376 21.2655 94.5351 19.7293 94.0346 19.0832C93.814 18.7988 93.5296 18.4953 93.2071 18.3666C91.3417 17.6208 89.4774 16.8583 87.5694 16.2324C85.9324 15.6938 84.2472 15.2874 82.5643 14.9044C81.5353 14.6704 80.4693 14.6066 79.4235 14.4442C77.4315 14.1363 75.4239 14.2001 73.4241 14.2416C72.3783 14.2628 71.328 14.4207 70.2967 14.6043C68.9262 14.8496 67.559 15.1351 66.212 15.4844C64.0152 16.0533 61.9381 16.9501 59.9293 17.9915C57.5298 19.2355 55.2848 20.7236 53.1786 22.4188C52.8864 22.6539 52.6053 22.9048 52.3019 23.1265C52.1843 23.2127 52.0231 23.2687 51.8775 23.2799C51.4184 23.3168 50.956 23.328 50.4947 23.3482C50.4163 23.3269 50.3368 23.2888 50.2584 23.2877C48.5452 23.2855 46.8321 23.2877 45.1189 23.2922C45.0394 23.2922 44.9599 23.3291 44.8793 23.3493C44.4796 23.328 44.0798 23.2855 43.6812 23.2899C42.8504 23.3 42.0196 23.3314 41.1888 23.3594C39.8462 23.4053 38.5037 23.4433 37.1623 23.5105C36.1568 23.5609 35.1524 23.6359 34.1503 23.7311C33.1033 23.8308 32.0598 23.9573 31.0162 24.0905C29.7509 24.2529 28.4778 24.3873 27.226 24.6246C25.6908 24.9158 24.1512 25.2293 22.6531 25.6671C20.9993 26.1508 19.3656 26.7274 17.7689 27.3758C16.5327 27.8774 15.3671 28.5503 14.1701 29.1471C14.0436 29.2098 13.9171 29.2714 13.7368 29.2849C13.8421 29.1359 13.9339 28.9736 14.0559 28.8415C15.4175 27.3769 17.0142 26.2348 18.8091 25.3569C21.034 24.2686 23.3674 23.5038 25.7871 22.9921C26.8296 22.7715 27.8687 22.5341 28.9167 22.346C29.6871 22.2083 30.4686 22.1366 31.2457 22.0381C32.2389 21.9127 33.2321 21.7806 34.2264 21.6686C34.6485 21.6216 35.0774 21.6227 35.5017 21.5925C36.4938 21.5219 37.4859 21.4447 38.4779 21.3719C38.5753 21.3652 38.675 21.3708 38.7724 21.3696C40.7095 21.3394 42.6466 21.3092 44.5837 21.2778C44.8804 21.2778 45.176 21.2778 45.4728 21.2778C46.7201 21.4379 47.8813 21.0516 49.0424 20.6978C51.6648 19.8983 54.1248 18.7271 56.5344 17.4361C58.1165 16.5885 59.7065 15.7498 61.3234 14.9716C63.5135 13.9168 65.7989 13.1062 68.1838 12.6146C69.2173 12.4019 70.2732 12.2821 71.3246 12.169C72.1946 12.0749 73.0714 12.0525 73.9459 11.9988C74.4654 11.9988 74.985 11.9988 75.5045 11.9988L75.5056 11.9999Z" fill="white"/>
<path d="M101.035 43.4045C101.774 43.3855 102.537 42.726 102.723 41.9131C102.959 40.8896 103.17 39.8606 103.401 38.8361C103.436 38.6816 103.474 38.5282 103.72 38.5304C105.489 38.5427 107.258 38.5371 109.087 38.5371C108.754 39.8405 108.531 41.1528 108.078 42.3811C107.554 43.7964 106.488 44.8277 105.102 45.448C104.499 45.7178 103.82 45.8175 103.175 45.9955C101.053 45.991 98.931 45.9843 96.8092 45.9832C95.9022 45.9832 94.9953 45.9933 94.0883 45.9989C92.6002 45.8432 91.4861 45.1826 90.9677 43.7068C90.6418 42.7797 90.7863 41.8616 91.0046 40.9434C91.1726 40.238 91.3517 39.5348 91.5096 38.8271C91.5522 38.6346 91.6037 38.5327 91.8298 38.5338C93.6706 38.5416 95.5114 38.5383 97.3937 38.5383C97.163 39.5348 96.9301 40.5089 96.714 41.4876C96.6088 41.9657 96.4901 42.4427 96.8013 42.913C97.0074 43.2242 97.2593 43.4 97.6311 43.4056C97.6579 43.4224 97.6837 43.4392 97.7106 43.4549C98.7933 43.4549 99.8761 43.4549 100.959 43.4549L101.038 43.4045H101.035Z" fill="white"/>
<path d="M71.1408 45.9955C69.468 45.8163 68.524 44.934 68.2128 43.3306C68.0952 42.7259 68.2531 42.1112 68.4098 41.5077C68.664 40.529 68.8667 39.5381 69.0906 38.5516H74.7743C74.5391 39.5818 74.3197 40.594 74.0733 41.5995C73.893 42.3351 74.1797 42.8849 74.9019 43.1156C75.0687 43.1368 75.2356 43.176 75.4024 43.1772C77.2511 43.1839 79.0997 43.185 80.9495 43.1872C80.7289 44.1155 80.5083 45.0426 80.2877 45.9708C78.4503 45.9742 76.6128 45.9753 74.7765 45.9798C73.5639 45.9832 72.3523 45.9899 71.1408 45.9943V45.9955Z" fill="white"/>
<path d="M65.9789 38.6155C65.5959 39.4038 65.1189 40.1204 64.3799 40.6209C64.1034 40.8079 63.7955 40.949 63.4607 41.1337C63.5928 41.5726 63.7294 42.0474 63.8794 42.5188C64.231 43.6239 64.5904 44.7257 64.9432 45.8309C64.9577 45.8757 64.9465 45.9283 64.9465 45.9765C64.7259 45.9776 64.5065 45.9809 64.2859 45.9809C62.6354 45.9865 60.985 45.9921 59.3345 45.9977C58.9493 44.8276 58.5552 43.6609 58.1823 42.4874C57.8151 41.3319 57.468 40.1696 57.1141 39.0107C57.0828 38.9077 57.066 38.8014 57.0425 38.6961C57.1421 38.6692 57.2418 38.6211 57.3414 38.62C60.2202 38.6155 63.099 38.6155 65.9778 38.6155H65.9789Z" fill="white"/>
<path d="M82.45 45.963C82.6257 45.065 82.7959 44.1659 82.9773 43.2701C83.236 41.9858 83.5025 40.7037 83.7656 39.4205C83.8227 39.1406 83.8832 38.8607 83.9481 38.5573H89.9386C89.5769 40.3589 89.2197 42.1571 88.8536 43.9531C88.7158 44.6283 88.5569 45.3001 88.4068 45.9731C86.4216 45.9697 84.4363 45.9664 82.45 45.963Z" fill="white"/>
<path d="M47.6 38.6177C47.4534 39.2895 47.3134 39.9613 47.1589 40.6309C46.8218 42.1011 46.4781 43.5702 46.1355 45.0381C46.0627 45.3505 45.9854 45.6618 45.9093 45.9742C44.0203 45.972 42.1314 45.9697 40.2424 45.9675C40.4406 45.0728 40.631 44.1748 40.8381 43.2824C41.1718 41.8436 41.5167 40.4081 41.8571 38.9704C41.885 38.854 41.9209 38.7386 41.9534 38.6233C43.8356 38.6211 45.7167 38.6188 47.5989 38.6166L47.6 38.6177Z" fill="white"/>
<path d="M35.9394 38.6199C35.6281 39.9244 35.3135 41.2277 35.0067 42.5333C34.767 43.5522 34.5397 44.5734 34.3046 45.5923C34.2733 45.7289 34.2285 45.8622 34.1904 45.9965C34.0437 45.9921 33.8981 45.982 33.7515 45.982C32.1021 45.9786 30.4528 45.9764 28.8035 45.973C28.9255 45.3796 29.0341 44.7828 29.1719 44.1927C29.5828 42.4359 30.0049 40.6824 30.4226 38.9278C30.4472 38.8237 30.4808 38.7218 30.5099 38.6188C32.3194 38.6188 34.1288 38.6188 35.9394 38.6188V38.6199Z" fill="white"/>
<path d="M54.9779 38.6177C54.7763 39.5191 54.5792 40.4216 54.371 41.3218C54.0407 42.7461 53.7025 44.1682 53.3688 45.5913C53.3386 45.7178 53.3129 45.8455 53.286 45.972C53.1012 45.9754 52.9176 45.9798 52.7328 45.981C51.1227 45.9854 49.5114 45.9888 47.9013 45.9933L47.8923 45.9888C47.8923 45.9351 47.8923 45.8813 47.8935 45.8287C48.104 44.8971 48.31 43.9655 48.525 43.035C48.8575 41.5973 49.1957 40.1607 49.5327 38.7241C49.5428 38.6816 49.5697 38.6424 49.5887 38.601C51.3847 38.6066 53.1818 38.6121 54.9779 38.6177Z" fill="white"/>
<path d="M112.025 37.5831C111.775 37.6066 111.525 37.6514 111.275 37.6514C98.8681 37.6547 86.4629 37.6547 74.0565 37.6536C72.6669 37.6536 71.2785 37.6469 69.8889 37.6447C70.0065 37.6234 70.1229 37.5831 70.2405 37.5831C84.1439 37.5797 98.0474 37.5797 111.951 37.5797C111.975 37.5797 112 37.582 112.025 37.5831Z" fill="#009CCC"/>
<path d="M112.678 34.6495C112.707 34.6484 112.735 34.6461 112.764 34.645C112.744 34.654 112.725 34.6652 112.703 34.6708C112.697 34.6719 112.686 34.6573 112.678 34.6495Z" fill="#457488"/>
<path d="M37.3569 26.1777C40.4798 26.1788 43.6026 26.1799 46.7255 26.181C46.7748 26.1788 46.8252 26.1766 46.8744 26.1743C48.4073 26.2829 49.7028 27.556 49.6905 29.1024C49.6827 30.0463 49.3848 30.9163 49.2023 31.8177C49.0724 32.4593 48.9201 33.0964 48.7779 33.7357C46.8901 33.7391 45.0012 33.7413 43.1133 33.7447C43.2757 33.0001 43.4481 32.2577 43.597 31.5109C43.6978 31.0081 43.7986 30.5009 43.8389 29.9903C43.8803 29.4685 43.466 29.0486 42.9263 29.0408C41.7484 29.0251 40.5705 29.0262 39.3925 29.0408C38.8047 29.0475 38.0187 29.7428 37.872 30.3464C37.5976 31.4773 37.3267 32.6104 37.0535 33.7413C35.2619 33.7413 33.4693 33.7436 31.6777 33.7447C31.7751 33.2531 31.8614 32.7593 31.9733 32.27C32.1626 31.4459 32.3048 30.6028 32.5791 29.8067C33.2173 27.9535 34.5823 26.8361 36.4219 26.2617C36.6235 26.199 36.8463 26.2023 37.0591 26.1754L37.3558 26.1777H37.3569Z" fill="white"/>
<path d="M66.0573 26.1776C67.0292 26.3131 67.8119 26.7677 68.3337 27.603C68.7256 28.2301 68.8913 28.9142 68.7256 29.6622C68.4423 30.9409 68.1747 32.2229 67.8981 33.5039C67.8802 33.5845 67.8455 33.6618 67.8198 33.7413C66.0338 33.7435 64.249 33.7491 62.4631 33.7424C62.3757 33.7424 62.2884 33.645 62.2011 33.5924C62.4418 32.5353 62.6713 31.475 62.9255 30.4213C63.1024 29.6846 62.6377 29.0407 61.8831 29.0351C60.8272 29.0273 59.7713 29.0307 58.7165 29.034C57.935 29.0363 57.1903 29.5435 56.9832 30.3071C56.6753 31.4425 56.4312 32.5936 56.1602 33.739C54.3474 33.739 52.5357 33.7379 50.7229 33.7368C50.9547 32.7055 51.1921 31.6765 51.4149 30.6442C51.5795 29.8827 51.8258 29.1628 52.2916 28.5245C53.1706 27.3197 54.297 26.5001 55.7896 26.2325C55.868 26.2179 55.9452 26.1967 56.0236 26.1787C56.0975 26.181 56.1714 26.1821 56.2453 26.1843C56.8701 26.1787 57.4938 26.1664 58.1186 26.1676C60.6424 26.1687 63.1651 26.1743 65.6889 26.1787C65.8121 26.1787 65.9353 26.1787 66.0596 26.1787L66.0573 26.1776Z" fill="white"/>
<path d="M107.965 26.1788C109.256 26.377 110.232 27.0052 110.762 28.2335C111.102 29.0229 111.05 29.838 110.876 30.6498C110.654 31.6833 110.409 32.7123 110.174 33.7436C108.424 33.7458 106.674 33.7492 104.924 33.7425C104.824 33.7425 104.724 33.6439 104.625 33.5913C104.844 32.6037 105.069 31.6173 105.281 30.6274C105.443 29.866 105.144 29.2513 104.355 29.099C104.273 29.0778 104.191 29.0386 104.11 29.0374C103.102 29.033 102.095 29.033 101.088 29.0374C100.994 29.0374 100.899 29.0789 100.804 29.1013C100.056 29.2457 99.492 29.688 99.2815 30.3845C98.9579 31.4594 98.7642 32.5746 98.5156 33.6719C98.4495 33.6966 98.3835 33.7436 98.3174 33.7436C96.5348 33.7481 94.7534 33.7492 92.9708 33.7413C92.8947 33.7413 92.8196 33.6428 92.7446 33.5913C93.0884 32.2006 93.2082 30.7439 93.8655 29.4439C94.7097 27.7766 96.1026 26.7655 97.8807 26.2617C98.108 26.1967 98.3544 26.2012 98.5918 26.1732C98.5985 26.1833 98.6074 26.2012 98.6119 26.2001C98.6309 26.1967 98.6489 26.1867 98.6679 26.1799C101.104 26.1755 103.542 26.1687 105.978 26.1665C106.566 26.1665 107.153 26.1777 107.741 26.1833C107.815 26.1811 107.889 26.1799 107.963 26.1777L107.965 26.1788Z" fill="white"/>
<path d="M98.6689 26.181C98.6499 26.1878 98.632 26.1978 98.6129 26.2012C98.6085 26.2012 98.5995 26.1833 98.5928 26.1743C98.6185 26.1766 98.6432 26.1788 98.6689 26.181Z" fill="#D2D4D6"/>
<path d="M86.5694 26.1821C88.511 26.1799 90.4526 26.1777 92.3942 26.1754C92.4154 26.1945 92.4356 26.2146 92.4569 26.2336C92.3023 27.0152 92.1512 27.7968 91.9933 28.5783C91.7358 29.8514 91.4749 31.1234 91.214 32.3954C91.1211 32.85 91.0214 33.3035 90.9251 33.7581C90.3485 33.7547 89.7718 33.7525 89.1951 33.7491C87.7843 33.7424 86.3735 33.7357 84.9626 33.729C85.1429 32.822 85.3221 31.9151 85.5035 31.0092C85.7599 29.7271 86.0129 28.4439 86.275 27.163C86.3388 26.8506 86.4328 26.5438 86.5123 26.2348C86.5314 26.2168 86.5493 26.2 86.5683 26.1821H86.5694Z" fill="white"/>
<path d="M77.6274 26.2347C77.4471 27.0432 77.268 27.8516 77.0843 28.66C76.7003 30.3519 76.3128 32.0427 75.9265 33.7334C74.0387 33.7379 72.1509 33.7413 70.2642 33.7458C70.4131 33.0235 70.5497 32.2991 70.7143 31.5814C71.0972 29.913 71.4947 28.248 71.8866 26.5818C71.9135 26.4665 71.9426 26.3501 71.9706 26.2347C71.9919 26.2157 72.0132 26.1955 72.0333 26.1765C73.8764 26.1765 75.7205 26.1765 77.5636 26.1765C77.5848 26.1955 77.605 26.2157 77.6263 26.2347H77.6274Z" fill="white"/>
<path d="M72.0344 26.1754C72.0131 26.1945 71.9918 26.2146 71.9717 26.2336C71.993 26.2146 72.0142 26.1945 72.0344 26.1754Z" fill="#D2D4D6"/>
<path d="M21.6968 22.729L23.2386 19.5065C23.3092 19.3598 23.4603 19.2702 23.6227 19.2792L44.0451 20.9375C44.0451 20.9375 30.7295 19.9846 22.1984 23.2765C21.8614 23.4064 21.54 23.0537 21.6956 22.7279L21.6968 22.729Z" fill="#C94480"/>
<defs>
<filter id="filter0_f_1_53331" x="0" y="-0.0012207" width="130.3" height="58.0001" filterUnits="userSpaceOnUse" color-interpolation-filters="sRGB">
<feFlood flood-opacity="0" result="BackgroundImageFix"/>
<feBlend mode="normal" in="SourceGraphic" in2="BackgroundImageFix" result="shape"/>
<feGaussianBlur stdDeviation="6" result="effect1_foregroundBlur_1_53331"/>
</filter>
</defs>
</svg>
